# xmcd
#
# Track frame offsets: 
#        150
#        29845
#        49979
#        89999
#        120803
#        151177
#        184026
#        214195
#        244772
#        265116
#
# Disc length: 3911 seconds
#
# Revision: 0
# Processed by: cddbd v1.5.2PL0 Copyright (c) Steve Scherf et al.
# Submitted via: ExactAudioCopy v1.0b3
#
DISCID=8a0f450a
DTITLE=Various Artist - Trance - The Very Best Vol. 1 - CD 2
DYEAR=1900
DGENRE=
TTITLE0=Scotty Vs. Full Gainer - Right Here Waiting (Club Mix)
TTITLE1=DJenetix - Wings Of Tomorrow (Club Mix)
TTITLE2=Harajuku Feat. Stephanie O'Hara - Bright Eyes (Trance Club Mix
TTITLE2=)
TTITLE3=Pierre Pulsar - Calling (Arena Allstars Mix)
TTITLE4=Vertikal - Daydream (Revolution 3 Rmx)
TTITLE5=Delta 3000 - Ready Go! (Club Mix)
TTITLE6=Samurai - House Of Love (Original Club Mix)
TTITLE7=Full Gainer - Love Tunes (Paolo Petrillo Rmx)
TTITLE8=Vanox Vs. Del Sol - Saving Paradies (Radio Mix)
TTITLE9=Laura Branigan - Gloria 2004 (Prodygee and Davis Rmx)
EXTD=
EXTT0=
EXTT1=
EXTT2=
EXTT3=
EXTT4=
EXTT5=
EXTT6=
EXTT7=
EXTT8=
EXTT9=
PLAYORDER=
